<svg id="visual" viewBox="0 0 900 600" width="900" height="600" xmlns="http://www.w3.org/2000/svg" xmlns:xlink="http://www.w3.org/1999/xlink" version="1.1"><rect x="0" y="0" width="900" height="600" fill="#001220"></rect><path d="M0 427L21.5 420.3C43 413.7 86 400.3 128.8 392.5C171.7 384.7 214.3 382.3 257.2 387.2C300 392 343 404 385.8 400.8C428.7 397.7 471.3 379.3 514.2 370.2C557 361 600 361 642.8 365C685.7 369 728.3 377 771.2 387C814 397 857 409 878.5 415L900 421L900 601L878.5 601C857 601 814 601 771.2 601C728.3 601 685.7 601 642.8 601C600 601 557 601 514.2 601C471.3 601 428.7 601 385.8 601C343 601 300 601 257.2 601C214.3 601 171.7 601 128.8 601C86 601 43 601 21.5 601L0 601Z" fill="#fa7268"></path><path d="M0 474L21.5 464.7C43 455.3 86 436.7 128.8 437C171.7 437.3 214.3 456.7 257.2 465.8C300 475 343 474 385.8 468.5C428.7 463 471.3 453 514.2 442.2C557 431.3 600 419.7 642.8 419.5C685.7 419.3 728.3 430.7 771.2 436.2C814 441.7 857 441.3 878.5 441.2L900 441L900 601L878.5 601C857 601 814 601 771.2 601C728.3 601 685.7 601 642.8 601C600 601 557 601 514.2 601C471.3 601 428.7 601 385.8 601C343 601 300 601 257.2 601C214.3 601 171.7 601 128.8 601C86 601 43 601 21.5 601L0 601Z" fill="#ef5f67"></path><path d="M0 509L21.5 507.8C43 506.7 86 504.3 128.8 500.8C171.7 497.3 214.3 492.7 257.2 483C300 473.3 343 458.7 385.8 453.5C428.7 448.3 471.3 452.7 514.2 452.5C557 452.3 600 447.7 642.8 452C685.7 456.3 728.3 469.7 771.2 471.5C814 473.3 857 463.7 878.5 458.8L900 454L900 601L878.5 601C857 601 814 601 771.2 601C728.3 601 685.7 601 642.8 601C600 601 557 601 514.2 601C471.3 601 428.7 601 385.8 601C343 601 300 601 257.2 601C214.3 601 171.7 601 128.8 601C86 601 43 601 21.5 601L0 601Z" fill="#e34c67"></path><path d="M0 500L21.5 502.7C43 505.3 86 510.7 128.8 511.5C171.7 512.3 214.3 508.7 257.2 504.8C300 501 343 497 385.8 494.5C428.7 492 471.3 491 514.2 489.7C557 488.3 600 486.7 642.8 485.8C685.7 485 728.3 485 771.2 484.3C814 483.7 857 482.3 878.5 481.7L900 481L900 601L878.5 601C857 601 814 601 771.2 601C728.3 601 685.7 601 642.8 601C600 601 557 601 514.2 601C471.3 601 428.7 601 385.8 601C343 601 300 601 257.2 601C214.3 601 171.7 601 128.8 601C86 601 43 601 21.5 601L0 601Z" fill="#d53867"></path><path d="M0 556L21.5 553.8C43 551.7 86 547.3 128.8 547.2C171.7 547 214.3 551 257.2 548.5C300 546 343 537 385.8 534.7C428.7 532.3 471.3 536.7 514.2 537C557 537.3 600 533.7 642.8 535.8C685.7 538 728.3 546 771.2 545C814 544 857 534 878.5 529L900 524L900 601L878.5 601C857 601 814 601 771.2 601C728.3 601 685.7 601 642.8 601C600 601 557 601 514.2 601C471.3 601 428.7 601 385.8 601C343 601 300 601 257.2 601C214.3 601 171.7 601 128.8 601C86 601 43 601 21.5 601L0 601Z" fill="#c62368"></path></svg>